<mxfile host="app.diagrams.net" modified="2024-04-25T12:04:03.199Z" agent="Mozilla/5.0 (Windows NT 10.0; Win64; x64) AppleWebKit/537.36 (KHTML, like Gecko) Chrome/124.0.0.0 Safari/537.36" etag="Ak5lK9XwLBLCWouvOmis" version="24.3.0" type="github">
  <diagram name="Página-1" id="hJ-oDDfINIxDq4tMdJt9">
    <mxGraphModel dx="1114" dy="600" grid="1" gridSize="10" guides="1" tooltips="1" connect="1" arrows="1" fold="1" page="1" pageScale="1" pageWidth="827" pageHeight="1169" math="0" shadow="0">
      <root>
        <mxCell id="0" />
        <mxCell id="1" parent="0" />
        <mxCell id="IF6atih2O0wUkR_YWs0J-422" value="início" style="ellipse;whiteSpace=wrap;html=1;aspect=fixed;fillColor=#d5e8d4;strokeColor=#82b366;" vertex="1" parent="1">
          <mxGeometry x="205" y="450" width="50" height="50" as="geometry" />
        </mxCell>
        <mxCell id="IF6atih2O0wUkR_YWs0J-424" value="" style="line;strokeWidth=1;direction=south;html=1;" vertex="1" parent="1">
          <mxGeometry x="225" y="500" width="10" height="40" as="geometry" />
        </mxCell>
        <mxCell id="IF6atih2O0wUkR_YWs0J-428" style="edgeStyle=orthogonalEdgeStyle;rounded=0;orthogonalLoop=1;jettySize=auto;html=1;" edge="1" parent="1">
          <mxGeometry relative="1" as="geometry">
            <mxPoint x="307.5" y="620" as="targetPoint" />
            <mxPoint x="225.00275862068978" y="580" as="sourcePoint" />
            <Array as="points">
              <mxPoint x="225.5" y="620" />
            </Array>
          </mxGeometry>
        </mxCell>
        <mxCell id="IF6atih2O0wUkR_YWs0J-426" value="Login" style="rounded=0;whiteSpace=wrap;html=1;fillColor=#dae8fc;strokeColor=#6c8ebf;" vertex="1" parent="1">
          <mxGeometry x="187.5" y="540" width="85" height="40" as="geometry" />
        </mxCell>
        <mxCell id="IF6atih2O0wUkR_YWs0J-432" value="" style="edgeStyle=orthogonalEdgeStyle;rounded=0;orthogonalLoop=1;jettySize=auto;html=1;" edge="1" parent="1" source="IF6atih2O0wUkR_YWs0J-430" target="IF6atih2O0wUkR_YWs0J-431">
          <mxGeometry relative="1" as="geometry" />
        </mxCell>
        <mxCell id="IF6atih2O0wUkR_YWs0J-430" value="User digitar dados" style="rounded=0;whiteSpace=wrap;html=1;fillColor=#dae8fc;strokeColor=#6c8ebf;" vertex="1" parent="1">
          <mxGeometry x="307.5" y="600" width="85" height="40" as="geometry" />
        </mxCell>
        <mxCell id="IF6atih2O0wUkR_YWs0J-434" value="" style="edgeStyle=orthogonalEdgeStyle;rounded=0;orthogonalLoop=1;jettySize=auto;html=1;" edge="1" parent="1" source="IF6atih2O0wUkR_YWs0J-431">
          <mxGeometry relative="1" as="geometry">
            <mxPoint x="459.98275862068976" y="580" as="targetPoint" />
          </mxGeometry>
        </mxCell>
        <mxCell id="IF6atih2O0wUkR_YWs0J-431" value="Recuperar dados" style="rounded=0;whiteSpace=wrap;html=1;fillColor=#dae8fc;strokeColor=#6c8ebf;" vertex="1" parent="1">
          <mxGeometry x="417.5" y="600" width="85" height="40" as="geometry" />
        </mxCell>
        <mxCell id="IF6atih2O0wUkR_YWs0J-435" value="" style="rhombus;whiteSpace=wrap;html=1;fillColor=#fff2cc;strokeColor=#d6b656;" vertex="1" parent="1">
          <mxGeometry x="436.5" y="533" width="47" height="47" as="geometry" />
        </mxCell>
        <mxCell id="IF6atih2O0wUkR_YWs0J-436" value="Confere?" style="text;html=1;align=center;verticalAlign=middle;whiteSpace=wrap;rounded=0;" vertex="1" parent="1">
          <mxGeometry x="376.5" y="540" width="60" height="30" as="geometry" />
        </mxCell>
        <mxCell id="IF6atih2O0wUkR_YWs0J-438" value="" style="edgeStyle=elbowEdgeStyle;elbow=vertical;endArrow=classic;html=1;curved=0;rounded=0;endSize=8;startSize=8;exitX=0.5;exitY=0;exitDx=0;exitDy=0;" edge="1" parent="1" source="IF6atih2O0wUkR_YWs0J-435">
          <mxGeometry width="50" height="50" relative="1" as="geometry">
            <mxPoint x="467.5" y="530" as="sourcePoint" />
            <mxPoint x="537.5" y="480" as="targetPoint" />
            <Array as="points">
              <mxPoint x="477.5" y="510" />
              <mxPoint x="487.5" y="510" />
              <mxPoint x="477.5" y="510" />
            </Array>
          </mxGeometry>
        </mxCell>
        <mxCell id="IF6atih2O0wUkR_YWs0J-439" value="" style="edgeStyle=elbowEdgeStyle;elbow=vertical;endArrow=classic;html=1;curved=0;rounded=0;endSize=8;startSize=8;" edge="1" parent="1">
          <mxGeometry width="50" height="50" relative="1" as="geometry">
            <mxPoint x="456.5" y="533" as="sourcePoint" />
            <mxPoint x="387.5" y="480" as="targetPoint" />
            <Array as="points">
              <mxPoint x="427.5" y="510" />
            </Array>
          </mxGeometry>
        </mxCell>
        <mxCell id="IF6atih2O0wUkR_YWs0J-447" style="edgeStyle=orthogonalEdgeStyle;rounded=0;orthogonalLoop=1;jettySize=auto;html=1;" edge="1" parent="1" source="IF6atih2O0wUkR_YWs0J-440">
          <mxGeometry relative="1" as="geometry">
            <mxPoint x="390" y="400" as="targetPoint" />
          </mxGeometry>
        </mxCell>
        <mxCell id="IF6atih2O0wUkR_YWs0J-440" value="Tela Inicial" style="rounded=0;whiteSpace=wrap;html=1;fillColor=#dae8fc;strokeColor=#6c8ebf;" vertex="1" parent="1">
          <mxGeometry x="347.5" y="440" width="85" height="40" as="geometry" />
        </mxCell>
        <mxCell id="IF6atih2O0wUkR_YWs0J-441" value="Sim" style="text;html=1;align=center;verticalAlign=middle;whiteSpace=wrap;rounded=0;" vertex="1" parent="1">
          <mxGeometry x="406.5" y="500" width="30" as="geometry" />
        </mxCell>
        <mxCell id="IF6atih2O0wUkR_YWs0J-442" value="Não" style="text;html=1;align=center;verticalAlign=middle;whiteSpace=wrap;rounded=0;" vertex="1" parent="1">
          <mxGeometry x="477.5" y="490" width="50" height="20" as="geometry" />
        </mxCell>
        <mxCell id="IF6atih2O0wUkR_YWs0J-446" style="edgeStyle=orthogonalEdgeStyle;rounded=0;orthogonalLoop=1;jettySize=auto;html=1;" edge="1" parent="1" source="IF6atih2O0wUkR_YWs0J-445">
          <mxGeometry relative="1" as="geometry">
            <mxPoint x="197.5" y="590" as="targetPoint" />
            <Array as="points">
              <mxPoint x="607.5" y="460" />
              <mxPoint x="607.5" y="680" />
              <mxPoint x="197.5" y="680" />
            </Array>
          </mxGeometry>
        </mxCell>
        <mxCell id="IF6atih2O0wUkR_YWs0J-445" value="Mensagem de erro" style="rounded=0;whiteSpace=wrap;html=1;fillColor=#dae8fc;strokeColor=#6c8ebf;" vertex="1" parent="1">
          <mxGeometry x="498.5" y="440" width="85" height="40" as="geometry" />
        </mxCell>
        <mxCell id="IF6atih2O0wUkR_YWs0J-451" style="edgeStyle=orthogonalEdgeStyle;rounded=0;orthogonalLoop=1;jettySize=auto;html=1;" edge="1" parent="1" source="IF6atih2O0wUkR_YWs0J-448">
          <mxGeometry relative="1" as="geometry">
            <mxPoint x="390" y="330" as="targetPoint" />
          </mxGeometry>
        </mxCell>
        <mxCell id="IF6atih2O0wUkR_YWs0J-448" value="Informações" style="rounded=0;whiteSpace=wrap;html=1;fillColor=#dae8fc;strokeColor=#6c8ebf;" vertex="1" parent="1">
          <mxGeometry x="347.5" y="360" width="85" height="40" as="geometry" />
        </mxCell>
        <mxCell id="IF6atih2O0wUkR_YWs0J-453" style="edgeStyle=orthogonalEdgeStyle;rounded=0;orthogonalLoop=1;jettySize=auto;html=1;" edge="1" parent="1" source="IF6atih2O0wUkR_YWs0J-452">
          <mxGeometry relative="1" as="geometry">
            <mxPoint x="437.5" y="270" as="targetPoint" />
          </mxGeometry>
        </mxCell>
        <mxCell id="IF6atih2O0wUkR_YWs0J-454" style="edgeStyle=orthogonalEdgeStyle;rounded=0;orthogonalLoop=1;jettySize=auto;html=1;" edge="1" parent="1" source="IF6atih2O0wUkR_YWs0J-452">
          <mxGeometry relative="1" as="geometry">
            <mxPoint x="337.5" y="270" as="targetPoint" />
          </mxGeometry>
        </mxCell>
        <mxCell id="IF6atih2O0wUkR_YWs0J-452" value="" style="rhombus;whiteSpace=wrap;html=1;fillColor=#fff2cc;strokeColor=#d6b656;" vertex="1" parent="1">
          <mxGeometry x="366.5" y="280" width="47" height="47" as="geometry" />
        </mxCell>
        <mxCell id="IF6atih2O0wUkR_YWs0J-455" value="Sim" style="text;html=1;align=center;verticalAlign=middle;whiteSpace=wrap;rounded=0;" vertex="1" parent="1">
          <mxGeometry x="335" y="317" width="30" as="geometry" />
        </mxCell>
        <mxCell id="IF6atih2O0wUkR_YWs0J-456" value="Não" style="text;html=1;align=center;verticalAlign=middle;whiteSpace=wrap;rounded=0;" vertex="1" parent="1">
          <mxGeometry x="396.5" y="307" width="50" height="20" as="geometry" />
        </mxCell>
        <mxCell id="IF6atih2O0wUkR_YWs0J-458" value="&lt;font style=&quot;font-size: 11px;&quot;&gt;Login incompleto, tente novamente&lt;/font&gt;&lt;div style=&quot;font-size: 11px;&quot;&gt;&lt;br&gt;&lt;/div&gt;" style="text;html=1;align=center;verticalAlign=middle;whiteSpace=wrap;rounded=0;" vertex="1" parent="1">
          <mxGeometry x="488.5" y="410" width="106" height="30" as="geometry" />
        </mxCell>
        <mxCell id="IF6atih2O0wUkR_YWs0J-459" value="Mensagem" style="rounded=0;whiteSpace=wrap;html=1;fillColor=#dae8fc;strokeColor=#6c8ebf;" vertex="1" parent="1">
          <mxGeometry x="297.5" y="230" width="85" height="40" as="geometry" />
        </mxCell>
        <mxCell id="IF6atih2O0wUkR_YWs0J-460" value="Mensagem de confirmação e protoclo" style="text;html=1;align=center;verticalAlign=middle;whiteSpace=wrap;rounded=0;" vertex="1" parent="1">
          <mxGeometry x="130" y="240" width="167.5" height="30" as="geometry" />
        </mxCell>
        <mxCell id="IF6atih2O0wUkR_YWs0J-463" style="edgeStyle=orthogonalEdgeStyle;rounded=0;orthogonalLoop=1;jettySize=auto;html=1;" edge="1" parent="1" source="IF6atih2O0wUkR_YWs0J-461">
          <mxGeometry relative="1" as="geometry">
            <mxPoint x="450" y="380" as="targetPoint" />
            <Array as="points">
              <mxPoint x="439" y="210" />
              <mxPoint x="670" y="210" />
              <mxPoint x="670" y="380" />
            </Array>
          </mxGeometry>
        </mxCell>
        <mxCell id="IF6atih2O0wUkR_YWs0J-461" value="Mensagem" style="rounded=0;whiteSpace=wrap;html=1;fillColor=#dae8fc;strokeColor=#6c8ebf;" vertex="1" parent="1">
          <mxGeometry x="396.5" y="230" width="85" height="40" as="geometry" />
        </mxCell>
        <mxCell id="IF6atih2O0wUkR_YWs0J-462" value="Informações faltando, por favor preencha todos os campos" style="text;html=1;align=center;verticalAlign=middle;whiteSpace=wrap;rounded=0;" vertex="1" parent="1">
          <mxGeometry x="481.5" y="235" width="196" height="30" as="geometry" />
        </mxCell>
        <mxCell id="IF6atih2O0wUkR_YWs0J-464" style="edgeStyle=orthogonalEdgeStyle;rounded=0;orthogonalLoop=1;jettySize=auto;html=1;" edge="1" parent="1">
          <mxGeometry relative="1" as="geometry">
            <mxPoint x="330" y="380" as="targetPoint" />
            <mxPoint x="336.5" y="230" as="sourcePoint" />
            <Array as="points">
              <mxPoint x="337" y="210" />
              <mxPoint x="120" y="210" />
              <mxPoint x="120" y="380" />
            </Array>
          </mxGeometry>
        </mxCell>
      </root>
    </mxGraphModel>
  </diagram>
</mxfile>
